{
  "accessors": [
    {
      "bufferView": 1,
      "componentType": 5126,
      "count": 3080,
      "max": [
        10,
        9.9956998825073242,
        25
      ],
      "min": [
        -9.9975996017456055,
        -10.004300117492676,
        0
      ],
      "type": "VEC3"
    },
    {
      "bufferView": 1,
      "byteOffset": 36960,
      "componentType": 5126,
      "count": 3080,
      "max": [
        1,
        0.99922752380371094,
        0.99999666213989258
      ],
      "min": [
        -0.99904918670654297,
        -0.99923914670944214,
        -0.99899667501449585
      ],
      "type": "VEC3"
    },
    {
      "bufferView": 0,
      "componentType": 5125,
      "count": 18120,
      "max": [
        3079
      ],
      "min": [
        0
      ],
      "type": "SCALAR"
    },
    {
      "bufferView": 1,
      "byteOffset": 73920,
      "componentType": 5126,
      "count": 1200,
      "max": [
        18.25,
        1.7457000017166138,
        21.75
      ],
      "min": [
        9.8457002639770508,
        -1.7542999982833862,
        3.25
      ],
      "type": "VEC3"
    },
    {
      "bufferView": 1,
      "byteOffset": 88320,
      "componentType": 5126,
      "count": 1200,
      "max": [
        0.99960798025131226,
        1,
        0.99999547004699707
      ],
      "min": [
        -0.99960511922836304,
        -1,
        -0.99999570846557617
      ],
      "type": "VEC3"
    },
    {
      "bufferView": 0,
      "byteOffset": 72480,
      "componentType": 5125,
      "count": 6840,
      "max": [
        1199
      ],
      "min": [
        0
      ],
      "type": "SCALAR"
    }
  ],
  "asset": {
    "extras": {
      "author": "Microsoft (https://sketchfab.com/microsoft)",
      "license": "CC-BY-4.0 (http://creativecommons.org/licenses/by/4.0/)",
      "source": "https://sketchfab.com/models/17c4808537f1448590378b3643c6da72",
      "title": "Mug"
    },
    "generator": "Sketchfab-3.29.4-rc2",
    "version": "2.0"
  },
  "bufferViews": [
    {
      "buffer": 0,
      "byteLength": 99840,
      "byteOffset": 0,
      "name": "floatBufferViews",
      "target": 34963
    },
    {
      "buffer": 0,
      "byteLength": 102720,
      "byteOffset": 99840,
      "byteStride": 12,
      "name": "floatBufferViews",
      "target": 34962
    }
  ],
  "buffers": [
    {
      "byteLength": 202560,
      "uri": "scene.bin"
    }
  ],
  "materials": [
    {
      "doubleSided": true,
      "emissiveFactor": [
        0,
        0,
        0
      ],
      "name": "wire_153228184",
      "pbrMetallicRoughness": {
        "baseColorFactor": [
          0.76656141899999997,
          0.75891738890000005,
          0.75891738890000005,
          1
        ],
        "metallicFactor": 0,
        "roughnessFactor": 0.59999999999999998
      }
    }
  ],
  "meshes": [
    {
      "primitives": [
        {
          "attributes": {
            "NORMAL": 1,
            "POSITION": 0
          },
          "indices": 2,
          "material": 0,
          "mode": 4
        }
      ]
    },
    {
      "primitives": [
        {
          "attributes": {
            "NORMAL": 4,
            "POSITION": 3
          },
          "indices": 5,
          "material": 0,
          "mode": 4
        }
      ]
    }
  ],
  "nodes": [
    {
      "children": [
        1
      ],
      "name": "RootNode (gltf orientation matrix)",
      "rotation": [
        -0.70710678118654746,
        -0,
        -0,
        0.70710678118654757
      ]
    },
    {
      "children": [
        2
      ],
      "name": "RootNode (model correction matrix)"
    },
    {
      "children": [
        3,
        4
      ],
      "name": "4f892747d0d2431f8129fe016b597c7f.obj.cleaner"
    },
    {
      "mesh": 0,
      "name": ""
    },
    {
      "mesh": 1,
      "name": ""
    }
  ],
  "scene": 0,
  "scenes": [
    {
      "name": "OSG_Scene",
      "nodes": [
        0
      ]
    }
  ]
}

